{
  "accessors": [
    {
      "bufferView": 1,
      "componentType": 5126,
      "count": 80,
      "max": [
        17.738420486450195,
        17.738420486450195,
        38.324440002441406
      ],
      "min": [
        0,
        0,
        0
      ],
      "type": "VEC3"
    },
    {
      "bufferView": 1,
      "byteOffset": 960,
      "componentType": 5126,
      "count": 80,
      "max": [
        0.92266887426376343,
        0.92266899347305298,
        1
      ],
      "min": [
        -0.92266899347305298,
        -0.92266899347305298,
        -1
      ],
      "type": "VEC3"
    },
    {
      "bufferView": 0,
      "componentType": 5125,
      "count": 132,
      "max": [
        79
      ],
      "min": [
        0
      ],
      "type": "SCALAR"
    },
    {
      "bufferView": 1,
      "byteOffset": 1920,
      "componentType": 5126,
      "count": 602,
      "max": [
        104.94000244140625,
        104.94000244140625,
        183.44309997558594
      ],
      "min": [
        0,
        0,
        0
      ],
      "type": "VEC3"
    },
    {
      "bufferView": 1,
      "byteOffset": 9144,
      "componentType": 5126,
      "count": 602,
      "max": [
        0.91811007261276245,
        0.91810989379882812,
        1
      ],
      "min": [
        -0.91811007261276245,
        -0.91811007261276245,
        -0.99311220645904541
      ],
      "type": "VEC3"
    },
    {
      "bufferView": 0,
      "byteOffset": 528,
      "componentType": 5125,
      "count": 612,
      "max": [
        601
      ],
      "min": [
        0
      ],
      "type": "SCALAR"
    }
  ],
  "asset": {
    "extras": {
      "author": "gashtan (https://sketchfab.com/gashtan)",
      "license": "CC-BY-4.0 (http://creativecommons.org/licenses/by/4.0/)",
      "source": "https://sketchfab.com/models/7abb385ee43343ab89bc7789d8afe1b1",
      "title": "evergreen tree"
    },
    "generator": "Sketchfab-3.18.7",
    "version": "2.0"
  },
  "bufferViews": [
    {
      "buffer": 0,
      "byteLength": 2976,
      "byteOffset": 0,
      "name": "floatBufferViews",
      "target": 34963
    },
    {
      "buffer": 0,
      "byteLength": 16368,
      "byteOffset": 2976,
      "byteStride": 12,
      "name": "floatBufferViews",
      "target": 34962
    }
  ],
  "buffers": [
    {
      "byteLength": 19344,
      "uri": "scene.bin"
    }
  ],
  "materials": [
    {
      "doubleSided": false,
      "emissiveFactor": [
        0,
        0,
        0
      ],
      "name": "auto_1",
      "pbrMetallicRoughness": {
        "baseColorFactor": [
          0.42745100000000003,
          0.27450999999999998,
          0.121569,
          1
        ],
        "metallicFactor": 0,
        "roughnessFactor": 0.59999999999999998
      }
    },
    {
      "doubleSided": false,
      "emissiveFactor": [
        0,
        0,
        0
      ],
      "name": "auto",
      "pbrMetallicRoughness": {
        "baseColorFactor": [
          0.207843,
          0.34902,
          0.086274500000000004,
          1
        ],
        "metallicFactor": 0,
        "roughnessFactor": 0.59999999999999998
      }
    }
  ],
  "meshes": [
    {
      "name": "Material2",
      "primitives": [
        {
          "attributes": {
            "NORMAL": 1,
            "POSITION": 0
          },
          "indices": 2,
          "material": 0,
          "mode": 4
        }
      ]
    },
    {
      "name": "Material2",
      "primitives": [
        {
          "attributes": {
            "NORMAL": 4,
            "POSITION": 3
          },
          "indices": 5,
          "material": 1,
          "mode": 4
        }
      ]
    }
  ],
  "nodes": [
    {
      "children": [
        1
      ],
      "name": "RootNode (gltf orientation matrix)",
      "rotation": [
        -0.70710678118654746,
        -0,
        -0,
        0.70710678118654757
      ]
    },
    {
      "children": [
        2
      ],
      "name": "RootNode (model correction matrix)"
    },
    {
      "children": [
        3
      ],
      "name": "Collada visual scene group"
    },
    {
      "children": [
        4,
        6,
        8,
        10,
        12,
        14,
        16,
        18,
        20,
        22,
        24,
        26,
        28,
        30,
        32
      ],
      "name": "SketchUp"
    },
    {
      "children": [
        5
      ],
      "matrix": [
        0.92311529999999997,
        -0.38452320000000001,
        -3.4694470000000004e-18,
        0,
        0.018711789999999999,
        0.044920939999999999,
        0.99881529999999996,
        0,
        -0.38406760000000001,
        -0.92202170000000006,
        0.048662329999999997,
        0,
        -139.77420000000001,
        -220.09649999999999,
        128.1183,
        1
      ],
      "name": "skp_camera_Last_Saved_SketchUp_View"
    },
    {
      "name": "ID1"
    },
    {
      "children": [
        7
      ],
      "matrix": [
        1,
        0,
        0,
        0,
        0,
        1,
        0,
        0,
        0,
        0,
        1,
        0,
        0,
        0,
        1,
        1
      ],
      "name": "skp_camera_ALL_ON"
    },
    {
      "name": "ID2"
    },
    {
      "children": [
        9
      ],
      "matrix": [
        1,
        0,
        0,
        0,
        0,
        1,
        0,
        0,
        0,
        0,
        1,
        0,
        0,
        0,
        1,
        1
      ],
      "name": "skp_camera_ALL_OFF"
    },
    {
      "name": "ID3"
    },
    {
      "children": [
        11
      ],
      "matrix": [
        1,
        0,
        0,
        0,
        0,
        1,
        0,
        0,
        0,
        0,
        1,
        0,
        0,
        0,
        1,
        1
      ],
      "name": "skp_camera_INTERIOR"
    },
    {
      "name": "ID4"
    },
    {
      "children": [
        13
      ],
      "matrix": [
        1,
        0,
        0,
        0,
        0,
        1,
        0,
        0,
        0,
        0,
        1,
        0,
        0,
        0,
        1,
        1
      ],
      "name": "skp_camera_EXTERIOR"
    },
    {
      "name": "ID5"
    },
    {
      "children": [
        15
      ],
      "matrix": [
        1,
        0,
        0,
        0,
        0,
        1,
        0,
        0,
        0,
        0,
        1,
        0,
        0,
        0,
        1,
        1
      ],
      "name": "skp_camera_SITE"
    },
    {
      "name": "ID6"
    },
    {
      "children": [
        17
      ],
      "matrix": [
        1,
        0,
        0,
        0,
        0,
        1,
        0,
        0,
        0,
        0,
        1,
        0,
        0,
        0,
        1,
        1
      ],
      "name": "skp_camera_DESIGN"
    },
    {
      "name": "ID7"
    },
    {
      "children": [
        19
      ],
      "matrix": [
        1,
        0,
        0,
        0,
        0,
        1,
        0,
        0,
        0,
        0,
        1,
        0,
        0,
        0,
        1,
        1
      ],
      "name": "skp_camera_3D_PERSPECTIVE"
    },
    {
      "name": "ID8"
    },
    {
      "children": [
        21
      ],
      "matrix": [
        1,
        0,
        0,
        0,
        0,
        1,
        0,
        0,
        0,
        0,
        1,
        0,
        0,
        0,
        1,
        1
      ],
      "name": "skp_camera_2D_DRAWING"
    },
    {
      "name": "ID9"
    },
    {
      "children": [
        23
      ],
      "matrix": [
        1,
        0,
        0,
        0,
        0,
        1,
        0,
        0,
        0,
        0,
        1,
        0,
        0,
        0,
        1,
        1
      ],
      "name": "skp_camera_SCOPE"
    },
    {
      "name": "ID10"
    },
    {
      "children": [
        25
      ],
      "matrix": [
        1,
        0,
        0,
        0,
        0,
        1,
        0,
        0,
        0,
        0,
        1,
        0,
        0,
        0,
        1,
        1
      ],
      "name": "skp_camera_AXIS_CHECK"
    },
    {
      "name": "ID11"
    },
    {
      "children": [
        27
      ],
      "matrix": [
        1,
        0,
        0,
        0,
        0,
        1,
        0,
        0,
        0,
        0,
        1,
        0,
        0,
        0,
        1,
        1
      ],
      "name": "skp_camera_ORIENT_FACES"
    },
    {
      "name": "ID12"
    },
    {
      "children": [
        29
      ],
      "matrix": [
        1,
        0,
        0,
        0,
        0,
        1,
        0,
        0,
        0,
        0,
        1,
        0,
        0,
        0,
        1,
        1
      ],
      "name": "skp_camera_45"
    },
    {
      "name": "ID13"
    },
    {
      "children": [
        31
      ],
      "matrix": [
        1,
        0,
        0,
        0,
        0,
        1,
        0,
        0,
        0,
        0,
        1,
        0,
        0,
        0,
        1,
        1
      ],
      "name": "skp_camera_90"
    },
    {
      "name": "ID14"
    },
    {
      "children": [
        33,
        35
      ],
      "name": "instance_0"
    },
    {
      "children": [
        34
      ],
      "matrix": [
        1,
        0,
        0,
        0,
        0,
        1,
        0,
        0,
        0,
        0,
        1,
        0,
        -8.8692080000000004,
        -8.8692089999999997,
        0,
        1
      ],
      "name": "group_0"
    },
    {
      "mesh": 0,
      "name": "Material2"
    },
    {
      "children": [
        36
      ],
      "matrix": [
        1,
        0,
        0,
        0,
        0,
        1,
        0,
        0,
        0,
        0,
        1,
        0,
        -52.702500000000001,
        -52.567079999999997,
        32.893990000000002,
        1
      ],
      "name": "group_1"
    },
    {
      "mesh": 1,
      "name": "Material2"
    }
  ],
  "scene": 0,
  "scenes": [
    {
      "name": "OSG_Scene",
      "nodes": [
        0
      ]
    }
  ]
}

